<?xml version="1.0" encoding="UTF-8"?>
<svg width="512" height="512" viewBox="0 0 512 512" fill="none" xmlns="http://www.w3.org/2000/svg">
  <rect width="512" height="512" rx="120" fill="#2E86DE"/>
  <path d="M144 256C144 193.03 195.03 142 258 142H368C379.046 142 388 150.954 388 162V350C388 361.046 379.046 370 368 370H258C195.03 370 144 318.97 144 256Z" fill="white"/>
  <rect x="172" y="224" width="40" height="64" rx="8" fill="#2E86DE"/>
  <rect x="236" y="224" width="40" height="64" rx="8" fill="#2E86DE"/>
  <rect x="300" y="224" width="40" height="64" rx="8" fill="#2E86DE"/>
  <path d="M214 182V172C214 169.791 215.791 168 218 168H230C232.209 168 234 169.791 234 172V182" stroke="white" stroke-width="8" stroke-linecap="round"/>
  <path d="M278 182V172C278 169.791 279.791 168 282 168H294C296.209 168 298 169.791 298 172V182" stroke="white" stroke-width="8" stroke-linecap="round"/>
  <path d="M342 182V172C342 169.791 343.791 168 346 168H358C360.209 168 362 169.791 362 172V182" stroke="white" stroke-width="8" stroke-linecap="round"/>
  <path d="M286 320L320 280" stroke="white" stroke-width="12" stroke-linecap="round"/>
  <path d="M190 320L224 280" stroke="white" stroke-width="12" stroke-linecap="round"/>
</svg>