<?xml version="1.0" encoding="UTF-8"?>
<svg width="96" height="96" viewBox="0 0 96 96" fill="none" xmlns="http://www.w3.org/2000/svg">
  <rect width="96" height="96" rx="24" fill="#4338CA"/>
  <rect x="20" y="28" width="24" height="40" rx="4" fill="white"/>
  <rect x="52" y="28" width="24" height="40" rx="4" fill="white"/>
  <path d="M32 28V24C32 22.8954 32.8954 22 34 22H38C39.1046 22 40 22.8954 40 24V28" stroke="#4338CA" stroke-width="3" stroke-linecap="round"/>
  <path d="M56 28V24C56 22.8954 56.8954 22 58 22H62C63.1046 22 64 22.8954 64 24V28" stroke="#4338CA" stroke-width="3" stroke-linecap="round"/>
  <path d="M32 40V56" stroke="#4338CA" stroke-width="4" stroke-linecap="round"/>
  <path d="M26 48H38" stroke="#4338CA" stroke-width="4" stroke-linecap="round"/>
  <path d="M56 42L64 54" stroke="#4338CA" stroke-width="4" stroke-linecap="round"/>
  <path d="M64 42L56 54" stroke="#4338CA" stroke-width="4" stroke-linecap="round"/>
</svg>